<?xml version="1.0" standalone="no"?>
<!DOCTYPE svg PUBLIC "-//W3C//DTD SVG 20010904//EN"
 "http://www.w3.org/TR/2001/REC-SVG-20010904/DTD/svg10.dtd">
<svg version="1.0" xmlns="http://www.w3.org/2000/svg"
 width="160.000000pt" height="160.000000pt" viewBox="0 0 160.000000 160.000000"
 preserveAspectRatio="xMidYMid meet">
<metadata>
Created by potrace 1.11, written by Peter Selinger 2001-2013
</metadata>
<g transform="translate(0.000000,160.000000) scale(0.100000,-0.100000)"
fill="#000000" stroke="none">
<path d="M1017 1565 c-171 -43 -306 -172 -352 -335 -7 -28 -16 -72 -20 -104
-3 -21 -8 -42 -11 -47 -3 -5 -1 -9 4 -9 14 0 -3 -78 -22 -99 -14 -15 -16 -26
-8 -53 l9 -34 -293 -295 -294 -294 -1 -50 c-2 -137 0 -207 6 -213 7 -8 253 -8
260 0 6 6 7 82 1 136 l-4 43 81 -1 c111 -3 108 -3 103 23 -5 19 -10 57 -21
145 -2 23 -1 23 69 17 39 -3 84 -8 99 -10 24 -5 36 2 73 40 24 26 44 56 44 68
2 68 7 125 13 134 7 12 111 7 142 -7 39 -17 50 -17 85 0 19 9 62 17 94 18 192
7 356 97 439 242 18 30 32 57 32 60 0 3 3 10 6 15 10 16 29 115 32 170 8 134
-90 307 -218 386 -99 61 -235 82 -348 54z m340 -181 c80 -61 85 -176 10 -246
-71 -66 -186 -49 -240 35 -54 83 -21 191 71 234 42 19 118 8 159 -23z"/>
</g>
</svg>
